<svg clip-rule="evenodd" fill-rule="evenodd" stroke-linejoin="round" stroke-miterlimit="2" viewBox="0 0 4800 1200" xmlns="http://www.w3.org/2000/svg" xmlns:xlink="http://www.w3.org/1999/xlink"><clipPath id="a"><path clip-rule="evenodd" d="m3942.87-1585.94h2922.52v963.177h-2922.52z"/></clipPath><g transform="matrix(1.64242 0 0 1.24588 -6475.83 1975.9)"><path d="m3942.87-1585.94h2922.52v963.177h-2922.52z" fill="none"/><g clip-path="url(#a)"><path d="m6231.72 639.305h1831.14v768.119h-1831.14z" fill="#1e7fbb" transform="matrix(.984079 0 0 1.25394 -2189.63 -2387.59)"/><g fill-rule="nonzero"><g fill="#fff"><path d="m.563 0h-.138v-.064h-.002c-.006.009-.014.017-.023.026-.01.01-.021.018-.034.025s-.028.013-.043.018c-.016.005-.032.007-.049.007-.036 0-.069-.006-.098-.019-.029-.012-.054-.029-.075-.052-.021-.022-.038-.048-.049-.079s-.017-.064-.017-.101c0-.034.005-.067.016-.098.01-.031.025-.058.044-.082s.042-.043.069-.058c.027-.014.058-.021.093-.021.031 0 .061.005.088.014.027.01.049.027.066.05h.002v-.322h.15zm-.138-.243c0-.037-.01-.066-.031-.089s-.051-.034-.089-.034-.067.011-.088.034-.032.052-.032.089.011.066.032.089.05.034.088.034.068-.011.089-.034.031-.052.031-.089z" transform="matrix(608.95365777 0 0 802.77153966 4020.526462 -805.693785)"/><path d="m-.005-.486h.16l.099.305h.002l.083-.305h.164l.09.305h.002l.091-.305h.152l-.173.486h-.148l-.101-.323h-.002l-.09.323h-.151z" transform="matrix(608.95365777 0 0 802.77153966 4404.153944 -805.693785)"/><path d="m.513-.084c-.024.031-.054.054-.091.071s-.075.025-.114.025c-.037 0-.072-.006-.105-.018-.034-.012-.062-.029-.086-.052-.025-.022-.044-.049-.058-.08s-.021-.066-.021-.105.007-.074.021-.105.033-.058.058-.081c.024-.022.052-.039.086-.051.033-.012.068-.018.105-.018.035 0 .066.006.095.018.028.012.052.029.072.051.019.023.034.05.045.081s.016.066.016.105v.047h-.348c.006.029.019.051.039.068s.045.026.074.026c.025 0 .046-.006.063-.017s.031-.025.044-.042zm-.127-.214c.001-.025-.008-.047-.025-.065s-.04-.027-.067-.027c-.017 0-.031.003-.044.008s-.023.012-.032.02c-.009.009-.016.019-.021.029-.005.011-.008.023-.009.035z" transform="matrix(608.95365777 0 0 802.77153966 4911.41772 -805.693785)"/><path d="m.067-.756h.15v.322h.002c.017-.023.04-.04.067-.05.027-.009.056-.014.087-.014.035 0 .066.007.093.021.027.015.051.034.07.058s.033.051.044.082c.01.031.015.064.015.098 0 .037-.006.07-.017.101s-.027.057-.048.079c-.021.023-.047.04-.076.052-.029.013-.062.019-.098.019-.017 0-.034-.002-.049-.007s-.029-.011-.042-.018-.025-.015-.034-.025c-.01-.009-.018-.017-.024-.026h-.002v.064h-.138zm.138.513c0 .037.011.066.032.089s.05.034.088.034.068-.011.089-.034.031-.052.031-.089-.01-.066-.031-.089-.051-.034-.089-.034-.067.011-.088.034-.032.052-.032.089z" transform="matrix(608.95365777 0 0 802.77153966 5260.956479 -805.693785)"/></g><path d="m.072-.364c0-.017 0-.035-.001-.052s-.003-.035-.004-.052h.071v.071h.002c.016-.027.038-.048.067-.062.028-.014.056-.021.084-.021.013 0 .026.001.041.004.014.003.028.008.041.014.013.007.026.017.038.03.011.013.021.029.029.049.013-.03.035-.054.064-.071s.059-.026.09-.026c.06 0 .104.016.133.047.029.032.043.077.043.136v.297h-.066v-.273c0-.047-.008-.084-.025-.109s-.048-.038-.093-.038c-.025 0-.045.005-.062.014-.017.01-.03.023-.04.039-.011.016-.018.034-.023.054-.005.021-.007.042-.007.064v.249h-.066v-.273c0-.047-.008-.084-.025-.109s-.048-.038-.093-.038c-.004 0-.013.001-.027.004-.015.003-.03.01-.045.022s-.029.03-.041.054c-.013.024-.019.057-.019.1v.24h-.066z" fill="#1e7fbb" transform="matrix(608.85897373 0 0 802.64940382 5919.50586 -805.740641)"/><path d="m.112-.234c0 .026.004.05.013.073.008.023.02.042.035.059s.034.03.056.039c.021.01.046.015.073.015s.052-.005.075-.015c.023-.009.042-.022.059-.039s.03-.036.039-.059.014-.047.014-.073-.005-.05-.014-.073-.022-.042-.039-.059-.036-.03-.059-.04c-.023-.009-.048-.014-.075-.014s-.052.005-.073.014c-.022.01-.041.023-.056.04s-.027.036-.035.059c-.009.023-.013.047-.013.073zm.427.234h-.066v-.078h-.002c-.011.016-.023.03-.038.041s-.03.021-.046.028-.032.013-.049.016-.034.005-.049.005c-.037 0-.07-.006-.1-.019-.031-.012-.057-.029-.079-.051s-.039-.048-.051-.078c-.013-.03-.019-.063-.019-.098s.006-.068.019-.098c.012-.03.029-.056.051-.078s.048-.039.079-.052c.03-.012.063-.018.1-.018.015 0 .032.002.049.005s.033.009.049.016.031.017.046.028.027.025.038.041h.002v-.366h.066z" fill="#1e7fbb" transform="matrix(608.85897373 0 0 802.64940382 6438.253886 -805.740641)"/><path d="m.193-.048c0 .014-.005.026-.015.037s-.023.017-.039.017-.029-.006-.039-.017-.015-.023-.015-.037.005-.027.015-.038.023-.016.039-.016.029.005.039.016.015.024.015.038z" fill="#1e7fbb" transform="matrix(608.859 0 0 802.648 5776.3385 -805.742171)"/></g></g></g></svg>