<?xml version="1.0" encoding="UTF-8" standalone="no"?>
<!DOCTYPE svg PUBLIC "-//W3C//DTD SVG 1.1//EN" "http://www.w3.org/Graphics/SVG/1.1/DTD/svg11.dtd">
<svg width="100%" height="100%" viewBox="0 0 4800 1200" version="1.1" xmlns="http://www.w3.org/2000/svg" xmlns:xlink="http://www.w3.org/1999/xlink" xml:space="preserve" xmlns:serif="http://www.serif.com/" style="fill-rule:evenodd;clip-rule:evenodd;stroke-linejoin:round;stroke-miterlimit:2;">
    <g transform="matrix(1,0,0,1,0,-8433.17)">
        <g id="logo_4_inverse" transform="matrix(1.64242,0,0,1.24588,-6475.83,10409.1)">
            <rect x="3942.87" y="-1585.94" width="2922.52" height="963.177" style="fill:none;"/>
            <clipPath id="_clip1">
                <rect x="3942.87" y="-1585.94" width="2922.52" height="963.177"/>
            </clipPath>
            <g clip-path="url(#_clip1)">
                <g transform="matrix(0.984079,0,0,1.25394,-2189.63,-2387.59)">
                    <rect x="6231.72" y="639.305" width="1831.14" height="768.119" style="fill:white;"/>
                </g>
                <g transform="matrix(1.43713,0,0,1.89454,2261.35,-3724.46)">
                    <text x="1224.09px" y="1540.62px" style="font-family:'Avenir-Black', 'Avenir', sans-serif;font-weight:800;font-size:423.729px;fill:rgb(30,127,187);">dweb</text>
                </g>
                <g transform="matrix(1,0,0,1,-11.3015,0.0238293)">
                    <g transform="matrix(0.834577,0,0,1.10021,4909.21,-2500.77)">
                        <text x="1224.09px" y="1540.62px" style="font-family:'Avenir-Book', 'Avenir';font-size:729.542px;fill:white;">md</text>
                    </g>
                    <g transform="matrix(0.608859,0,0,0.802648,5787.64,-805.766)">
                        <text x="0px" y="0px" style="font-family:'Avenir-Book', 'Avenir';font-size:1000px;fill:white;">.</text>
                    </g>
                </g>
            </g>
        </g>
    </g>
</svg>
