<?xml version="1.0" encoding="UTF-8" standalone="no"?>
<!DOCTYPE svg PUBLIC "-//W3C//DTD SVG 1.1//EN" "http://www.w3.org/Graphics/SVG/1.1/DTD/svg11.dtd">
<svg width="100%" height="100%" viewBox="0 0 729 493" version="1.1" xmlns="http://www.w3.org/2000/svg" xmlns:xlink="http://www.w3.org/1999/xlink" xml:space="preserve" xmlns:serif="http://www.serif.com/" style="fill-rule:evenodd;clip-rule:evenodd;stroke-linecap:round;stroke-linejoin:round;stroke-miterlimit:1.5;">
    <g transform="matrix(1,0,0,1,-920.323,-4542.1)">
        <g transform="matrix(1.12498,0,0,1.12498,-260.556,-477.86)">
            <path d="M1150.92,4867.07L1150.92,4721.3L1330.12,4721.3L1330.12,4900.49L1182.21,4900.49C1165.23,4898.38 1151.92,4884.36 1150.92,4867.07ZM1345.17,4828.51C1345.19,4828.52 1345.21,4828.54 1345.22,4828.56C1337.34,4820.5 1331.17,4832.4 1330.22,4834.6L1330.22,4793.34C1331.17,4795.57 1337.22,4807.52 1345.11,4799.5C1345.11,4799.5 1345.15,4799.47 1345.15,4799.47L1345.26,4799.34C1347.08,4797.48 1349.17,4796.06 1351.4,4795.08L1351.49,4795.04C1358.86,4791.76 1367.76,4793.21 1373.79,4799.37C1381.67,4807.43 1381.67,4820.5 1373.79,4828.56C1367.74,4834.74 1358.79,4836.18 1351.4,4832.85L1351.3,4832.8C1349.09,4831.82 1347.03,4830.4 1345.22,4828.56C1345.21,4828.54 1345.19,4828.52 1345.17,4828.51ZM1345.15,4799.47L1345.11,4799.5L1345.22,4799.37L1345.26,4799.34L1345.15,4799.47ZM1284.21,4706.34C1284.23,4706.32 1284.24,4706.31 1284.26,4706.29C1276.21,4714.17 1288.11,4720.34 1290.3,4721.3L1249.05,4721.3C1251.28,4720.34 1263.22,4714.29 1255.2,4706.4C1255.2,4706.4 1255.17,4706.37 1255.17,4706.37L1255.04,4706.25C1253.19,4704.43 1251.76,4702.35 1250.79,4700.11L1250.75,4700.03C1247.47,4692.65 1248.92,4683.75 1255.08,4677.72C1263.13,4669.84 1276.21,4669.84 1284.26,4677.72C1290.44,4683.77 1291.88,4692.72 1288.55,4700.11L1288.51,4700.22C1287.53,4702.43 1286.1,4704.49 1284.26,4706.29C1284.24,4706.31 1284.23,4706.32 1284.21,4706.34ZM1255.17,4706.37L1255.2,4706.4L1255.08,4706.29L1255.04,4706.25L1255.17,4706.37Z" style="fill:rgb(109,181,223);"/>
        </g>
        <g id="security_n_privacy_by_default" transform="matrix(2.21213,0,0,2.45129,805.93,4443.84)">
            <rect x="51.712" y="40.088" width="329.371" height="201.113" style="fill:none;"/>
            <clipPath id="_clip1">
                <rect x="51.712" y="40.088" width="329.371" height="201.113"/>
            </clipPath>
            <g clip-path="url(#_clip1)">
                <g transform="matrix(0.452052,0,0,0.407948,-364.322,-1831.39)">
                    <path d="M1424.37,4789.14C1426.84,4790.21 1440.23,4797.15 1431.16,4806.02C1431.18,4806 1431.2,4805.98 1431.22,4805.96C1431.2,4805.98 1431.18,4806 1431.16,4806.02C1429.09,4808.05 1427.49,4810.37 1426.39,4812.85L1426.34,4812.97C1422.59,4821.28 1424.21,4831.35 1431.16,4838.16C1440.23,4847.03 1454.94,4847.03 1464,4838.16C1470.93,4831.38 1472.56,4821.36 1468.87,4813.07L1468.83,4812.97C1467.73,4810.46 1466.12,4808.11 1464.04,4806.06L1463.89,4805.93C1463.89,4805.93 1463.85,4805.89 1463.85,4805.89C1454.83,4797.02 1468.27,4790.21 1470.78,4789.14L1527.5,4789.14L1527.5,4955.54C1525.13,4974.64 1509.36,4989.61 1489.9,4990.73L1325.91,4990.73L1325.91,4916.66C1326.98,4914.19 1333.92,4900.8 1342.79,4909.86C1342.77,4909.84 1342.75,4909.82 1342.74,4909.8C1342.75,4909.82 1342.77,4909.84 1342.79,4909.86C1344.82,4911.93 1347.14,4913.53 1349.62,4914.64L1349.74,4914.69C1358.05,4918.43 1368.12,4916.82 1374.93,4909.86C1383.8,4900.8 1383.8,4886.09 1374.93,4877.03C1368.15,4870.1 1358.13,4868.47 1349.84,4872.16L1349.74,4872.2C1347.23,4873.3 1344.88,4874.9 1342.83,4876.99L1342.7,4877.13C1342.7,4877.13 1342.66,4877.17 1342.66,4877.17C1333.79,4886.19 1326.98,4872.75 1325.91,4870.24L1325.91,4887.78L1325.91,4789.14L1424.37,4789.14ZM1342.7,4877.13L1342.66,4877.17L1342.79,4877.03L1342.83,4876.99L1342.7,4877.13ZM1463.89,4805.93L1463.85,4805.89L1464,4806.02L1464.04,4806.06L1463.89,4805.93Z" style="fill:rgb(79,151,192);"/>
                </g>
                <g transform="matrix(0.50855,0,0,0.458933,-441.423,-2044.43)">
                    <path d="M1423.83,4736.29C1423.81,4736.3 1423.8,4736.32 1423.78,4736.34C1431.83,4728.45 1419.94,4722.28 1417.74,4721.33L1459,4721.33C1456.77,4722.28 1444.82,4728.34 1452.84,4736.22C1452.84,4736.22 1452.87,4736.26 1452.87,4736.26L1453,4736.37C1454.86,4738.2 1456.28,4740.28 1457.26,4742.51L1457.3,4742.6C1460.57,4749.97 1459.12,4758.87 1452.97,4764.9C1444.91,4772.78 1431.83,4772.78 1423.78,4764.9C1417.6,4758.85 1416.16,4749.9 1419.49,4742.51L1419.54,4742.41C1420.52,4740.2 1421.94,4738.14 1423.78,4736.34C1423.8,4736.32 1423.81,4736.3 1423.83,4736.29ZM1452.87,4736.26L1452.84,4736.22L1452.97,4736.34L1453,4736.37L1452.87,4736.26ZM1330.22,4616.92L1330.22,4542.1L1478.13,4542.1C1495.11,4544.21 1508.41,4558.23 1509.41,4575.53L1509.41,4721.3L1330.22,4721.3L1330.22,4658.18C1331.17,4655.98 1337.34,4644.09 1345.22,4652.14C1345.21,4652.12 1345.19,4652.11 1345.17,4652.09C1345.19,4652.11 1345.21,4652.12 1345.22,4652.14C1347.03,4653.98 1349.09,4655.4 1351.3,4656.39L1351.4,4656.43C1358.79,4659.76 1367.74,4658.32 1373.79,4652.14C1381.67,4644.09 1381.67,4631.01 1373.79,4622.95C1367.76,4616.8 1358.86,4615.35 1351.49,4618.62L1351.4,4618.66C1349.17,4619.64 1347.08,4621.07 1345.26,4622.92L1345.15,4623.05C1345.15,4623.05 1345.11,4623.08 1345.11,4623.08C1337.22,4631.1 1331.17,4619.15 1330.22,4616.92ZM1345.15,4623.05L1345.11,4623.08L1345.22,4622.95L1345.26,4622.92L1345.15,4623.05Z" style="fill:rgb(109,181,223);"/>
                </g>
                <g transform="matrix(0.388059,0,0,0.394305,208.85,28.9072)">
                    <g transform="matrix(0.514642,0,0,0.457074,51.7119,40.0879)">
                        <circle cx="311.624" cy="149.754" r="84.882" style="fill:none;stroke:white;stroke-width:9.05px;"/>
                    </g>
                    <g transform="matrix(0.514642,0,0,0.457074,51.7119,40.0879)">
                        <path d="M311.624,64.872L311.624,234.637" style="fill:none;stroke:white;stroke-width:9.05px;"/>
                    </g>
                    <g transform="matrix(3.15127e-17,-0.457074,0.514642,2.79877e-17,135.017,250.972)">
                        <path d="M311.624,64.872L311.624,234.637" style="fill:none;stroke:white;stroke-width:9.05px;"/>
                    </g>
                    <g transform="matrix(0.514642,0,0,0.457074,51.7119,40.0879)">
                        <path d="M311.624,64.872C373.289,121.46 371.979,178.049 311.624,234.637" style="fill:none;stroke:white;stroke-width:9.05px;"/>
                    </g>
                    <g transform="matrix(-0.514642,0,0,0.457074,372.462,40.0879)">
                        <path d="M311.624,64.872C373.289,121.46 371.979,178.049 311.624,234.637" style="fill:none;stroke:white;stroke-width:9.05px;"/>
                    </g>
                    <g transform="matrix(-0.514642,-5.59755e-17,3.55794e-17,-0.25803,372.438,159.862)">
                        <path d="M256.938,84.855C275.168,102.003 293.396,110.405 311.624,110.3C329.823,110.194 348.021,101.609 366.22,84.779" style="fill:none;stroke:white;stroke-width:11.15px;"/>
                    </g>
                    <g transform="matrix(0.514642,1.11951e-16,-7.11589e-17,0.25803,51.7349,57.2115)">
                        <path d="M256.938,84.855C275.168,102.003 293.396,110.405 311.624,110.3C329.823,110.194 348.021,101.609 366.22,84.779" style="fill:none;stroke:white;stroke-width:11.15px;"/>
                    </g>
                </g>
                <g transform="matrix(0.545819,0,0,0.492567,-456.855,-2228.82)">
                    <path d="M1267.66,4676.02C1268.55,4678.1 1274.19,4689.23 1281.53,4681.76C1281.53,4681.76 1281.57,4681.72 1281.57,4681.72L1281.67,4681.6C1283.37,4679.88 1285.32,4678.55 1287.4,4677.64L1287.48,4677.6C1294.35,4674.55 1302.64,4675.9 1308.26,4681.64C1315.6,4689.14 1315.6,4701.32 1308.26,4708.83C1302.62,4714.59 1294.28,4715.93 1287.4,4712.83L1287.3,4712.78C1285.24,4711.87 1283.32,4710.55 1281.64,4708.83C1281.62,4708.81 1281.61,4708.8 1281.59,4708.78C1281.61,4708.8 1281.62,4708.81 1281.64,4708.83C1274.3,4701.32 1268.55,4712.41 1267.66,4714.46L1267.66,4773.26L1230.42,4773.26C1228.38,4772.38 1217.29,4766.62 1224.79,4759.28C1224.78,4759.3 1224.76,4759.31 1224.75,4759.33C1224.76,4759.31 1224.78,4759.3 1224.79,4759.28C1226.51,4757.6 1227.83,4755.68 1228.75,4753.62L1228.79,4753.53C1231.89,4746.64 1230.55,4738.3 1224.79,4732.66C1217.29,4725.32 1205.1,4725.32 1197.6,4732.66C1191.86,4738.28 1190.51,4746.58 1193.57,4753.44L1193.6,4753.53C1194.51,4755.61 1195.84,4757.55 1197.57,4759.25L1197.69,4759.35C1197.69,4759.35 1197.72,4759.39 1197.72,4759.39C1205.19,4766.73 1194.06,4772.37 1191.98,4773.26L1100.7,4773.26L1100.7,4635.45C1102.66,4619.63 1115.73,4607.23 1131.84,4606.31L1267.66,4606.31L1267.66,4676.02ZM1197.69,4759.35L1197.72,4759.39L1197.6,4759.28L1197.57,4759.25L1197.69,4759.35ZM1281.57,4681.72L1281.53,4681.76L1281.64,4681.64L1281.67,4681.6L1281.57,4681.72Z" style="fill:rgb(79,151,192);"/>
                </g>
                <g transform="matrix(0.814841,0,0,0.814841,22.8015,7.39029)">
                    <g transform="matrix(0.452052,0,0,0.407948,-364.322,-1812.85)">
                        <path d="M1223.2,4692.16L1223.2,4600.06C1232.18,4603.96 1242.6,4607.02 1255.09,4608.85L1255.09,4651.27C1254.62,4668.38 1244.1,4682.05 1223.2,4692.16Z" style="fill:white;"/>
                    </g>
                    <g transform="matrix(0.479277,0,0,0.432517,-397.624,-1927)">
                        <path d="M1223.2,4698.05C1200.99,4687.86 1188.05,4672.87 1186.67,4651.91L1186.77,4604.13C1199.62,4602.91 1211.76,4599.78 1223.2,4594.4C1223.2,4594.4 1246.79,4602.91 1259.64,4604.13L1259.74,4651.91C1258.35,4672.87 1245.42,4687.86 1223.2,4698.05Z" style="fill:none;stroke:white;stroke-width:5.79px;stroke-linecap:butt;stroke-linejoin:miter;"/>
                    </g>
                </g>
                <g transform="matrix(0.82322,0,0,0.82322,47.0289,97.9002)">
                    <g transform="matrix(0.452052,0,0,0.407948,-364.159,-1814.29)">
                        <path d="M1456.33,4685.61C1430.02,4685.2 1406.55,4681.75 1406.79,4677.42C1406.86,4675.88 1414.51,4672.44 1425.83,4671.36L1432.45,4646.2C1432.98,4643.66 1434.5,4641.7 1437.81,4640.77C1438.61,4640.59 1440.1,4640.49 1440.79,4640.83C1445.5,4643.19 1449.57,4644.53 1453.11,4645.22C1454.42,4645.39 1455.7,4645.47 1456.95,4645.47C1458.21,4645.47 1459.49,4645.39 1460.8,4645.22C1464.34,4644.53 1468.41,4643.19 1473.12,4640.83C1473.81,4640.49 1475.3,4640.59 1476.1,4640.77C1479.41,4641.7 1480.92,4643.66 1481.46,4646.2L1488.08,4671.36C1499.4,4672.44 1507.05,4675.88 1507.12,4677.42C1507.36,4681.79 1483.52,4685.25 1456.95,4685.62L1456.33,4685.61Z" style="fill:white;"/>
                    </g>
                    <g transform="matrix(0.452052,0,0,0.407948,-364.322,-1812.85)">
                        <path d="M1457.95,4708.17C1456.27,4708.08 1454.85,4708.8 1453.57,4710C1451.82,4712.02 1449.62,4713.06 1446.81,4712.82C1440.4,4712.66 1435.29,4710.83 1430.67,4708.36C1428.67,4707.34 1427.33,4705.94 1426.41,4704.29C1423.92,4699.63 1423.02,4696.28 1422.33,4692.9C1422.1,4690.78 1423.35,4689.72 1426.07,4689.72C1436.89,4691.14 1447.4,4691.16 1457.95,4691.36C1468.5,4691.16 1479.01,4691.14 1489.82,4689.72C1492.55,4689.72 1493.79,4690.78 1493.56,4692.9C1492.88,4696.28 1491.97,4699.63 1489.49,4704.29C1488.57,4705.94 1487.22,4707.34 1485.22,4708.36C1480.61,4710.83 1475.49,4712.66 1469.08,4712.82C1466.27,4713.06 1464.07,4712.02 1462.32,4710C1461.05,4708.8 1459.62,4708.08 1457.95,4708.17ZM1465.33,4700.84C1466.23,4703.83 1468.56,4705.25 1472.3,4705.08C1476.95,4704.74 1480.58,4703.33 1481.59,4699.23C1481.36,4697.67 1479.23,4696.95 1475.5,4696.93C1469.22,4697.15 1465,4698.15 1465.33,4700.84ZM1450.57,4700.84C1449.66,4703.83 1447.34,4705.25 1443.59,4705.08C1438.94,4704.74 1435.32,4703.33 1434.3,4699.23C1434.53,4697.67 1436.66,4696.95 1440.39,4696.93C1446.67,4697.15 1450.89,4698.15 1450.57,4700.84Z" style="fill:white;"/>
                    </g>
                </g>
                <g transform="matrix(0.650475,0,0,0.578368,-576.375,-2654.38)">
                    <text x="1063.9px" y="4946.59px" style="font-family:'Arial-BoldMT', 'Arial', sans-serif;font-weight:700;font-size:40px;fill:white;">dApp</text>
                </g>
            </g>
        </g>
    </g>
</svg>
