<svg clip-rule="evenodd" fill-rule="evenodd" stroke-linecap="round" stroke-linejoin="round" stroke-miterlimit="1.5" viewBox="0 0 729 493" xmlns="http://www.w3.org/2000/svg" xmlns:xlink="http://www.w3.org/1999/xlink"><clipPath id="a"><path clip-rule="evenodd" d="m268.754 48.744 112.248.278v185.424l-210.466 1.822-18.099-12.041z"/></clipPath><g transform="matrix(2.21213 0 0 2.45129 -114.394 -98.27)"><g fill="none"><path d="m51.712 40.088h329.371v201.113h-329.371z"/><g stroke="#bcd1dd"><path d="m1244.18 2440.3 262.83-70.6" stroke-dasharray="10.63 10.63 0 0" stroke-opacity=".35" stroke-width="3.54" transform="matrix(.510204 0 0 .460426 -436.526 -986.634)"/><path d="m1507.01 2374.97-15.56 178.4" stroke-dasharray="10.63 10.63 0 0" stroke-opacity=".35" stroke-width="3.54" transform="matrix(.510204 0 0 .460426 -436.526 -986.634)"/><path d="m1279.73 2592.2 211.72-38.83" stroke-dasharray="10.63 10.63 0 0" stroke-opacity=".35" stroke-width="3.54" transform="matrix(.510204 0 0 .460426 -436.526 -986.634)"/><path d="m1219.98 2426.65 271.47 126.72" stroke-dasharray="10.63 10.63 0 0" stroke-opacity=".35" stroke-width="3.54" transform="matrix(.510204 0 0 .460426 -436.526 -986.634)"/><path d="m1278.19 2592.2-185.27-38.83" stroke-dasharray="10.63 10.63 0 0" stroke-width="3.54" transform="matrix(.510204 0 0 .460426 -436.526 -986.634)"/><path d="m1278.19 2592.2 228.82-220.14" stroke-dasharray="10.63 10.63 0 0" stroke-opacity=".35" stroke-width="3.54" transform="matrix(.510204 0 0 .460426 -436.526 -986.634)"/><path d="m1044.96 2359.21 47.96 194.16" stroke-dasharray="10.63 10.63 0 0" stroke-width="3.54" transform="matrix(.510204 0 0 .460426 -436.526 -986.634)"/><path d="m1240.06 2434.75-60.06-138.27" stroke-dasharray="10.63 10.63 0 0" stroke-width="3.54" transform="matrix(.510204 0 0 .460426 -436.526 -986.634)"/><path d="m1080.49 2538.12 99.51-241.64" stroke-dasharray="10.63 10.63 0 0" stroke-width="3.54" transform="matrix(.510204 0 0 .460426 -436.526 -986.634)"/><path d="m1341.56 2321.94 165.45 47.22" stroke-dasharray="10.63 10.63 0 0" stroke-opacity=".35" stroke-width="3.54" transform="matrix(.510204 0 0 .460426 -436.526 -986.634)"/><path d="m1341.56 2321.94-161.56-25.46" stroke-dasharray="10.63 10.63 0 0" stroke-width="3.54" transform="matrix(.510204 0 0 .460426 -436.526 -986.634)"/><path d="m1352.59 2337.3 188.72 90.04" stroke-dasharray="16 8 0 0" stroke-linecap="butt" stroke-width="4" transform="matrix(.510204 0 0 .460426 -593.478 -983.22)"/></g></g><path d="m190.836 723.319 54.907 31.701v63.402l-54.907 31.701-54.908-31.701v-63.402z" fill="#c1c1c1" transform="matrix(.44934473 0 0 .40550431 10.661663 -230.038647)"/><path d="m190.836 786.721 54.907-31.673v63.374l-54.907 31.701" fill="#161616" transform="matrix(.44934473 0 0 .40550431 10.661663 -230.038647)"/><path d="m190.836 786.721 54.907-31.673v63.374l-54.907 31.701" fill="#757575" transform="matrix(-.44934473 0 0 .40550431 182.163666 -230.038647)"/><path d="m190.836 723.319 54.907 31.701v63.402l-54.907 31.701-54.908-31.701v-63.402z" fill="#36adf2" fill-opacity=".6" transform="matrix(.44934537 0 0 .4055041 10.661641 -230.038185)"/><path d="m190.836 723.319 54.907 31.701v63.402l-54.907 31.701-54.908-31.701v-63.402z" fill="#c1c1c1" transform="matrix(.49845575 0 0 .4498238 101.165037 -216.668484)"/><path d="m190.836 786.721 54.907-31.673v63.374l-54.907 31.701" fill="#161616" transform="matrix(.49845575 0 0 .4498238 101.165037 -216.668484)"/><path d="m190.836 786.721 54.907-31.673v63.374l-54.907 31.701" fill="#757575" transform="matrix(-.49845575 0 0 .4498238 291.411308 -216.668484)"/><path d="m190.836 723.319 54.907 31.701v63.402l-54.907 31.701-54.908-31.701v-63.402z" fill="#36adf2" fill-opacity=".6" transform="matrix(.49845646 0 0 .44982357 101.165013 -216.667971)"/><path d="m190.836 723.319 54.907 31.701v63.402l-54.907 31.701-54.908-31.701v-63.402z" fill="#c1c1c1" transform="matrix(.58980942 0 0 .54615906 -5.479595 -250.824244)"/><path d="m190.836 786.721 54.907-31.673v63.374l-54.907 31.701" fill="#161616" transform="matrix(.58980942 0 0 .54615906 -5.479595 -250.824244)"/><path d="m190.836 786.721 54.907-31.673v63.374l-54.907 31.701" fill="#757575" transform="matrix(-.58980942 0 0 .54615906 219.633754 -250.824244)"/><path d="m190.836 723.319 54.907 31.701v63.402l-54.907 31.701-54.908-31.701v-63.402z" fill="#36adf2" fill-opacity=".6" transform="matrix(.58981026 0 0 .54615878 -5.479623 -250.823622)"/><path d="m190.836 723.319 54.907 31.701v63.402l-54.907 31.701-54.908-31.701v-63.402z" fill="#c1c1c1" transform="matrix(.22288977 0 0 .20114348 121.410567 -90.193572)"/><path d="m190.836 786.721 54.907-31.673v63.374l-54.907 31.701" fill="#161616" transform="matrix(.22288977 0 0 .20114348 121.410567 -90.193572)"/><path d="m190.836 786.721 54.907-31.673v63.374l-54.907 31.701" fill="#757575" transform="matrix(-.22288977 0 0 .20114348 206.481203 -90.193572)"/><path d="m190.836 723.319 54.907 31.701v63.402l-54.907 31.701-54.908-31.701v-63.402z" fill="#36adf2" fill-opacity=".6" transform="matrix(.22289009 0 0 .20114337 121.410557 -90.193342)"/><path d="m190.836 723.319 54.907 31.701v63.402l-54.907 31.701-54.908-31.701v-63.402z" fill="#c1c1c1" transform="matrix(.41479465 0 0 .37432512 166.926552 -214.036197)"/><path d="m190.836 786.721 54.907-31.673v63.374l-54.907 31.701" fill="#161616" transform="matrix(.41479465 0 0 .37432512 166.926552 -214.036197)"/><path d="m190.836 786.721 54.907-31.673v63.374l-54.907 31.701" fill="#757575" transform="matrix(-.41479465 0 0 .37432512 325.241782 -214.036197)"/><path d="m190.836 723.319 54.907 31.701v63.402l-54.907 31.701-54.908-31.701v-63.402z" fill="#36adf2" fill-opacity=".6" transform="matrix(.41479525 0 0 .37432493 166.926532 -214.03577)"/><g clip-path="url(#a)" transform="matrix(.878382 0 0 .89252 26.3177 19.5185)"><path d="m190.836 723.319 54.907 31.701v63.402l-54.907 31.701-54.908-31.701v-63.402z" fill="#c1c1c1" transform="matrix(.49810702 0 0 .44238862 258.675981 -258.303737)"/><path d="m190.836 786.721 54.907-31.673v63.374l-54.907 31.701" fill="#161616" transform="matrix(.49810702 0 0 .44238862 258.675981 -258.303737)"/><path d="m190.836 786.721 54.907-31.673v63.374l-54.907 31.701" fill="#757575" transform="matrix(-.49810702 0 0 .44238862 448.789152 -258.303737)"/><path d="m190.836 723.319 54.907 31.701v63.402l-54.907 31.701-54.908-31.701v-63.402z" fill="#fff" fill-opacity=".6" transform="matrix(.49810773 0 0 .4423884 258.675957 -258.303232)"/><path d="m190.836 723.319 54.907 31.701v63.402l-54.907 31.701-54.908-31.701v-63.402z" fill="#c1c1c1" transform="matrix(.56968611 0 0 .50399296 225.93705 -211.137546)"/><path d="m190.836 786.721 54.907-31.673v63.374l-54.907 31.701" fill="#161616" transform="matrix(.56968611 0 0 .50399296 225.93705 -211.137546)"/><path d="m190.836 786.721 54.907-31.673v63.374l-54.907 31.701" fill="#757575" transform="matrix(-.56968611 0 0 .50399296 443.369911 -211.137546)"/><path d="m190.836 723.319 54.907 31.701v63.402l-54.907 31.701-54.908-31.701v-63.402z" fill="#fff" fill-opacity=".6" transform="matrix(.56968693 0 0 .50399271 225.937023 -211.136972)"/><path d="m190.836 723.319 54.907 31.701v63.402l-54.907 31.701-54.908-31.701v-63.402z" fill="#c1c1c1" transform="matrix(.47222581 0 0 .4194025 160.07711 -261.680071)"/><path d="m190.836 786.721 54.907-31.673v63.374l-54.907 31.701" fill="#161616" transform="matrix(.47222581 0 0 .4194025 160.07711 -261.680071)"/><path d="m190.836 786.721 54.907-31.673v63.374l-54.907 31.701" fill="#757575" transform="matrix(-.47222581 0 0 .4194025 340.312167 -261.680071)"/><path d="m190.836 723.319 54.907 31.701v63.402l-54.907 31.701-54.908-31.701v-63.402z" fill="#fff" fill-opacity=".6" transform="matrix(.47222649 0 0 .41940228 160.077087 -261.679593)"/><path d="m190.836 723.319 54.907 31.701v63.402l-54.907 31.701-54.908-31.701v-63.402z" fill="#c1c1c1" transform="matrix(.56747036 0 0 .50399296 85.210463 -264.629346)"/><path d="m190.836 786.721 54.907-31.673v63.374l-54.907 31.701" fill="#161616" transform="matrix(.56747036 0 0 .50399296 85.210463 -264.629346)"/><path d="m190.836 786.721 54.907-31.673v63.374l-54.907 31.701" fill="#757575" transform="matrix(-.56747036 0 0 .50399296 301.797633 -264.629346)"/><path d="m190.836 723.319 54.907 31.701v63.402l-54.907 31.701-54.908-31.701v-63.402z" fill="#fff" fill-opacity=".6" transform="matrix(.56747117 0 0 .50399271 85.210436 -264.628772)"/><ellipse cx="1404.46" cy="1496.94" fill="#f0ad00" rx="87.299" ry="30.765" transform="matrix(0 -.08768227 -.09872552 0 429.223303 233.272738)"/><path d="m1317.16 1495.61h174.455v32.101h-174.455z" fill="#f0ad00" transform="matrix(0 -.08768227 -.05385459 0 363.71084 233.272738)"/><ellipse cx="1404.46" cy="1496.94" fill="#ffea00" rx="87.299" ry="30.765" transform="matrix(0 -.08768227 -.09872552 0 430.952124 233.272738)"/><g fill="#f0ad00"><path d="m1370.82 1414.92c-.09-.29-.14-.57-.14-.87 0-4.62 11.76-8.38 26.24-8.38 14.49 0 26.25 3.76 26.25 8.38 0 .3-.05.58-.14.87-1.36-4.22-12.53-7.52-26.11-7.52-13.56 0-24.74 3.3-26.1 7.52z" transform="matrix(0 -.24081523 -.27114668 0 666.580221 446.527381)"/><ellipse cx="1404.46" cy="1496.94" rx="87.299" ry="30.765" transform="matrix(0 -.08768227 -.09872552 0 430.125454 274.679346)"/><path d="m1317.16 1495.61h174.455v32.101h-174.455z" transform="matrix(0 -.08768227 -.05385459 0 364.61299 274.679346)"/></g><ellipse cx="1404.46" cy="1496.94" fill="#ffea00" rx="87.299" ry="30.765" transform="matrix(0 -.08768227 -.09872552 0 431.854275 274.679346)"/><g fill="#f0ad00"><path d="m1370.82 1414.92c-.09-.29-.14-.57-.14-.87 0-4.62 11.76-8.38 26.24-8.38 14.49 0 26.25 3.76 26.25 8.38 0 .3-.05.58-.14.87-1.36-4.22-12.53-7.52-26.11-7.52-13.56 0-24.74 3.3-26.1 7.52z" transform="matrix(0 -.24081523 -.27114668 0 667.482372 487.933988)"/><ellipse cx="1404.46" cy="1496.94" rx="87.299" ry="30.765" transform="matrix(0 -.09392136 -.10575101 0 425.223202 332.900035)"/><path d="m1317.16 1495.61h174.455v32.101h-174.455z" transform="matrix(0 -.09392136 -.05768698 0 355.048752 332.900035)"/></g><ellipse cx="1404.46" cy="1496.94" fill="#ffea00" rx="87.299" ry="30.765" transform="matrix(0 -.09392136 -.10575101 0 427.075049 332.900035)"/><path d="m1370.82 1414.92c-.09-.29-.14-.57-.14-.87 0-4.62 11.76-8.38 26.24-8.38 14.49 0 26.25 3.76 26.25 8.38 0 .3-.05.58-.14.87-1.36-4.22-12.53-7.52-26.11-7.52-13.56 0-24.74 3.3-26.1 7.52z" fill="#f0ad00" transform="matrix(0 -.25795058 -.29044198 0 679.470874 561.32894)"/><path d="m190.836 723.319 54.907 31.701v63.402l-54.907 31.701-54.908-31.701v-63.402z" fill="#c1c1c1" transform="matrix(.34511785 0 0 .31591376 149.641619 -38.61293)"/><path d="m190.836 786.721 54.907-31.673v63.374l-54.907 31.701" fill="#161616" transform="matrix(.34511785 0 0 .31591376 149.641619 -38.61293)"/><path d="m190.836 786.721 54.907-31.673v63.374l-54.907 31.701" fill="#757575" transform="matrix(-.34511785 0 0 .31591376 281.36321 -38.61293)"/><path d="m190.836 723.319 54.907 31.701v63.402l-54.907 31.701-54.908-31.701v-63.402z" fill="#fff" fill-opacity=".6" transform="matrix(.34511834 0 0 .3159136 149.641602 -38.61257)"/></g><g transform="matrix(.45205289 -.00000001 .00000001 .4079482 51.712401 40.083616)"><path d="m518.44 250.614 12.767-4.121-4.364 12.687c.041-4.243-4.161-8.526-8.403-8.566z" fill="#ffdd03"/><path d="m507.867 269.393s9.601-9.42 16.488-16.177" fill="none" stroke="#ffdd03" stroke-width="4"/></g><g transform="matrix(.45205254 .00000005 -.00000002 .40794812 51.711367 40.083284)"><path d="m435.463 401.888-12.875-3.772 10.743-8.037c-2.42 3.485-1.353 9.39 2.132 11.809z" fill="#ffdd03"/><path d="m448.761 393.389s-9.229 1.667-16.726 3.021" fill="none" stroke="#ffdd03" stroke-width="4"/></g><path d="m1432.77 2863.7-74.53 8.53" fill="none" stroke="#ffdd03" stroke-width="4.85" transform="matrix(.137033 .0264355 .05653 .416679 -79.7668 -1034.44)"/><path d="m1396.38 2868.32 21.17-21.16" fill="none" stroke="#ffdd03" stroke-width="4.01" transform="matrix(.501868 -.0415395 -.0469173 .444343 -309.277 -1045.33)"/><g transform="matrix(.45205281 .00000002 -.00000002 .40794808 51.712024 40.0846)"><path d="m457.686 207.633-13.136-2.729 10.065-8.871c-2.132 3.667-.597 9.468 3.071 11.6z" fill="#ffdd03"/><path d="m474.654 196.935s-11.979 3.171-20.823 5.512" fill="none" stroke="#ffdd03" stroke-width="4"/></g><path d="m1408.2 2864.93-29.93 8.6" fill="none" stroke="#ffdd03" stroke-width="4.06" transform="matrix(.423838 .015281 -.00141253 .405928 -298.024 -1070.88)"/></g></svg>