<svg clip-rule="evenodd" fill-rule="evenodd" stroke-linecap="round" stroke-linejoin="round" stroke-miterlimit="1.5" viewBox="0 0 729 493" xmlns="http://www.w3.org/2000/svg" xmlns:xlink="http://www.w3.org/1999/xlink"><clipPath id="a"><path clip-rule="evenodd" d="m51.712 40.088h329.371v201.113h-329.371z"/></clipPath><g transform="matrix(2.21213 0 0 2.45129 -114.39 -98.26)"><path d="m51.712 40.088h329.371v201.113h-329.371z" fill="none"/><g clip-path="url(#a)"><g fill="none"><path d="m1287.9 2350.8 254.84-64.38" stroke="#bcd1dd" stroke-dasharray="10.63 10.63 0 0" stroke-width="3.54" transform="matrix(.510204 0 0 .460426 -574.482 -985.587)"/><path d="m1287.9 2350.8 119.16 149.65" stroke="#bcd1dd" stroke-dasharray="10.63 10.63 0 0" stroke-width="3.54" transform="matrix(.510204 0 0 .460426 -574.482 -985.587)"/><path d="m1287.9 2350.8 417.97 166.04" stroke="#bcd1dd" stroke-dasharray="10.63 10.63 0 0" stroke-width="3.54" transform="matrix(.510204 0 0 .460426 -574.482 -985.587)"/><path d="m1807.37 2352.21-101.5 164.63" stroke="#bcd1dd" stroke-dasharray="10.63 10.63 0 0" stroke-width="3.54" transform="matrix(.510204 0 0 .460426 -574.482 -985.587)"/><path d="m1550.12 2290.12 259.16 56.02" stroke="#4f97c0" stroke-dasharray="15.95 15.95 0 0" stroke-width="5.32" transform="matrix(.510204 0 0 .460426 -574.482 -985.587)"/><path d="m1261.57 2509.76 155.74-127.56" stroke="#c83a2e" stroke-dasharray="15.95 15.95 0 0" stroke-width="5.32" transform="matrix(.510204 0 0 .460426 -427.261 -925.645)"/><path d="m1261.57 2509.76-149.25-129.91" stroke="#4f97c0" stroke-dasharray="15.95 15.95 0 0" stroke-width="5.32" transform="matrix(.510204 0 0 .460426 -427.261 -925.645)"/><path d="m1254.19 2159.93-141.87 219.92" stroke="#4f97c0" stroke-dasharray="15.95 15.95 0 0" stroke-width="5.32" transform="matrix(.510204 0 0 .460426 -427.261 -925.645)"/></g><path d="m211.898 331.868h-130v-60.937c0-35.875 29.125-69.063 65-69.063 35.874 0 65 33.188 65 69.063z" fill="#52a7d8" transform="matrix(.3104540665 0 0 .20690065412 170.792017355 172.536770375)"/><circle cx="151.275" cy="155.86" fill="#52a7d8" r="44.14" transform="matrix(.3104540665 0 0 .28016438085 169.4332853675 160.513012604)"/><path d="m190.836 723.319 54.907 31.701v63.402l-54.907 31.701-54.908-31.701v-63.402z" fill="#c1c1c1" transform="matrix(.45078928652 0 0 .40680852272 -9.56322168731 -225.41065006621)"/><path d="m190.836 786.721 54.907-31.673v63.374l-54.907 31.701" fill="#161616" transform="matrix(.45078928652 0 0 .40680852272 -9.56322168731 -225.41065006621)"/><path d="m190.836 786.721 54.907-31.673v63.374l-54.907 31.701" fill="#757575" transform="matrix(-.45078928652 0 0 .40680852272 162.49012781365 -225.41065006621)"/><path d="m190.836 723.319 54.907 31.701v63.402l-54.907 31.701-54.908-31.701v-63.402z" fill="#bbdbee" fill-opacity=".6" transform="matrix(.4507899312 0 0 .40680831468 -9.56324328 -225.410186512)"/><path d="m190.836 723.319 54.907 31.701v63.402l-54.907 31.701-54.908-31.701v-63.402z" fill="#c1c1c1" transform="matrix(.45078928652 0 0 .40680852272 129.80367831269 -253.61965006621)"/><path d="m190.836 786.721 54.907-31.673v63.374l-54.907 31.701" fill="#161616" transform="matrix(.45078928652 0 0 .40680852272 129.80367831269 -253.61965006621)"/><path d="m190.836 786.721 54.907-31.673v63.374l-54.907 31.701" fill="#757575" transform="matrix(-.45078928652 0 0 .40680852272 301.85702781365 -253.61965006621)"/><path d="m190.836 723.319 54.907 31.701v63.402l-54.907 31.701-54.908-31.701v-63.402z" fill="#bbdbee" fill-opacity=".6" transform="matrix(.4507899312 0 0 .40680831468 129.80365672 -253.619186512)"/><path d="m190.836 723.319 54.907 31.701v63.402l-54.907 31.701-54.908-31.701v-63.402z" fill="#c1c1c1" transform="matrix(.45078928652 0 0 .40680852272 55.16337831269 -150.48725006621)"/><path d="m190.836 786.721 54.907-31.673v63.374l-54.907 31.701" fill="#161616" transform="matrix(.45078928652 0 0 .40680852272 55.16337831269 -150.48725006621)"/><path d="m190.836 786.721 54.907-31.673v63.374l-54.907 31.701" fill="#757575" transform="matrix(-.45078928652 0 0 .40680852272 227.21672781365 -150.48725006621)"/><path d="m190.836 723.319 54.907 31.701v63.402l-54.907 31.701-54.908-31.701v-63.402z" fill="#bbdbee" fill-opacity=".6" transform="matrix(.4507899312 0 0 .40680831468 55.16335672 -150.486786512)"/><path d="m190.836 723.319 54.907 31.701v63.402l-54.907 31.701-54.908-31.701v-63.402z" fill="#c1c1c1" transform="matrix(.45078928652 0 0 .40680852272 262.59177831269 -227.11165006621)"/><path d="m190.836 786.721 54.907-31.673v63.374l-54.907 31.701" fill="#161616" transform="matrix(.45078928652 0 0 .40680852272 262.59177831269 -227.11165006621)"/><path d="m190.836 786.721 54.907-31.673v63.374l-54.907 31.701" fill="#757575" transform="matrix(-.45078928652 0 0 .40680852272 434.64512781365 -227.11165006621)"/><path d="m190.836 723.319 54.907 31.701v63.402l-54.907 31.701-54.908-31.701v-63.402z" fill="#36adf2" fill-opacity=".6" transform="matrix(.4507899312 0 0 .40680831468 262.59175672 -227.111186512)"/><path d="m190.836 723.319 54.907 31.701v63.402l-54.907 31.701-54.908-31.701v-63.402z" fill="#c1c1c1" transform="matrix(.45078928652 0 0 .40680852272 209.82977831269 -149.94785006621)"/><path d="m190.836 786.721 54.907-31.673v63.374l-54.907 31.701" fill="#161616" transform="matrix(.45078928652 0 0 .40680852272 209.82977831269 -149.94785006621)"/><path d="m190.836 786.721 54.907-31.673v63.374l-54.907 31.701" fill="#757575" transform="matrix(-.45078928652 0 0 .40680852272 381.88312781365 -149.94785006621)"/><path d="m190.836 723.319 54.907 31.701v63.402l-54.907 31.701-54.908-31.701v-63.402z" fill="#ff1400" fill-opacity=".6" transform="matrix(.4507899312 0 0 .40680831468 209.82975672 -149.947386512)"/><path d="m3393.75 4820.61h-46.77v93.42h70.25v-93.42l-.08 23.41z" fill="#fff" transform="matrix(.305959 0 0 .276108 -686.16728 -1250.5946)"/><path d="m3393.75 4820.61 23.4 23.41.08-23.41z" fill="#5c5c5c" transform="matrix(-.305959 0 0 -.276108 1397.71372 1417.8954)"/><path d="m3349.5 4823.39h36.667v5.789h-36.667z" fill="#5c5c5c" fill-opacity=".89" transform="matrix(.383592 0 0 .407948 -943.25528 -1877.3446)"/><path d="m3349.5 4823.39h36.667v5.789h-36.667z" fill="#5c5c5c" fill-opacity=".89" transform="matrix(.383592 0 0 .407948 -943.25528 -1872.6246)"/><path d="m3349.5 4823.39h36.667v5.789h-36.667z" fill="#5c5c5c" fill-opacity=".89" transform="matrix(.162572 0 0 .407948 -202.95028 -1867.9046)"/><path d="m3393.75 4820.61h-46.77v93.42h70.25v-93.42l-.08 23.41z" fill="#6db5df" fill-opacity=".5" transform="matrix(.305959 0 0 .276108 -686.16728 -1250.5946)"/><path d="m3393.75 4820.61 23.4 23.41.08-23.41z" fill="#6db5df" fill-opacity=".5" transform="matrix(-.305959 0 0 -.276108 1397.71372 1417.8954)"/><path d="m3349.5 4823.39h36.667v5.789h-36.667z" fill="#6db5df" fill-opacity=".5" transform="matrix(.383592 0 0 .407948 -943.25528 -1877.3446)"/><path d="m3349.5 4823.39h36.667v5.789h-36.667z" fill="#6db5df" fill-opacity=".5" transform="matrix(.383592 0 0 .407948 -943.25528 -1872.6246)"/><path d="m3349.5 4823.39h36.667v5.789h-36.667z" fill="#6db5df" fill-opacity=".5" transform="matrix(.162572 0 0 .407948 -202.95028 -1867.9046)"/><path d="m3393.75 4820.61h-46.77v93.42h70.25v-93.42l-.08 23.41z" fill="#fff" transform="matrix(.305959 0 0 .276108 -738.9291 -1172.7309)"/><path d="m3393.75 4820.61 23.4 23.41.08-23.41z" fill="#5c5c5c" transform="matrix(-.305959 0 0 -.276108 1344.9519 1495.7591)"/><path d="m3349.5 4823.39h36.667v5.789h-36.667z" fill="#5c5c5c" fill-opacity=".89" transform="matrix(.383592 0 0 .407948 -996.0171 -1799.4809)"/><path d="m3349.5 4823.39h36.667v5.789h-36.667z" fill="#5c5c5c" fill-opacity=".89" transform="matrix(.383592 0 0 .407948 -996.0171 -1794.7609)"/><path d="m3349.5 4823.39h36.667v5.789h-36.667z" fill="#5c5c5c" fill-opacity=".89" transform="matrix(.162572 0 0 .407948 -255.7121 -1790.0409)"/><path d="m3393.75 4820.61h-46.77v93.42h70.25v-93.42l-.08 23.41z" fill="#e6594c" fill-opacity=".5" transform="matrix(.305959 0 0 .276108 -738.9291 -1172.7309)"/><path d="m3393.75 4820.61 23.4 23.41.08-23.41z" fill="#e6594c" fill-opacity=".5" transform="matrix(-.305959 0 0 -.276108 1344.9519 1495.7591)"/><path d="m3349.5 4823.39h36.667v5.789h-36.667z" fill="#e6594c" fill-opacity=".5" transform="matrix(.383592 0 0 .407948 -996.0171 -1799.4809)"/><path d="m3349.5 4823.39h36.667v5.789h-36.667z" fill="#e6594c" fill-opacity=".5" transform="matrix(.383592 0 0 .407948 -996.0171 -1794.7609)"/><path d="m3349.5 4823.39h36.667v5.789h-36.667z" fill="#e6594c" fill-opacity=".5" transform="matrix(.162572 0 0 .407948 -255.7121 -1790.0409)"/></g></g></svg>