<svg clip-rule="evenodd" fill-rule="evenodd" stroke-linecap="round" stroke-linejoin="round" stroke-miterlimit="1.5" viewBox="0 0 729 493" xmlns="http://www.w3.org/2000/svg" xmlns:xlink="http://www.w3.org/1999/xlink"><clipPath id="a"><path clip-rule="evenodd" d="m51.712 40.088h329.371v201.113h-329.371z"/></clipPath><g transform="matrix(2.21213 0 0 2.45129 -114.39 -98.26)"><path d="m51.712 40.088h329.371v201.113h-329.371z" fill="none"/><g clip-path="url(#a)"><path d="m1461.44 2620.69-84.94-48.93" fill="none" stroke="#bcd1dd" stroke-dasharray="10.63 10.63 0 0" stroke-width="3.54" transform="matrix(.510204 0 0 .460426 -388.478 -988.23307)"/><path d="m1420.16 2633.59-43.66-61.83" fill="none" stroke="#bcd1dd" stroke-dasharray="10.63 10.63 0 0" stroke-width="3.54" transform="matrix(.510204 0 0 .460426 -458.063 -1121.90907)"/><path d="m1260.19 2517.3 116.31 54.46" fill="none" stroke="#bcd1dd" stroke-dasharray="10.63 10.63 0 0" stroke-width="3.54" transform="matrix(.510204 0 0 .460426 -388.478 -988.23307)"/><path d="m1260.19 2517.3 16.08 130.87" fill="none" stroke="#bcd1dd" stroke-dasharray="10.63 10.63 0 0" stroke-width="3.54" transform="matrix(.510204 0 0 .460426 -388.478 -988.23307)"/><path d="m1260.19 2517.3 230.16-49.67" fill="none" stroke="#bcd1dd" stroke-dasharray="10.63 10.63 0 0" stroke-width="3.54" transform="matrix(.510204 0 0 .460426 -388.478 -988.23307)"/><path d="m1287.9 2350.8 202.45 116.83" fill="none" stroke="#bcd1dd" stroke-dasharray="10.63 10.63 0 0" stroke-width="3.54" transform="matrix(.510204 0 0 .460426 -388.478 -988.23307)"/><path d="m1277.94 2647.21 212.41-179.58" fill="none" stroke="#bcd1dd" stroke-dasharray="10.63 10.63 0 0" stroke-width="3.54" transform="matrix(.510204 0 0 .460426 -388.478 -988.23307)"/><path d="m1287.9 2347.35 135.64-25.41" fill="none" stroke="#bcd1dd" stroke-dasharray="10.63 10.63 0 0" stroke-width="3.54" transform="matrix(.510204 0 0 .460426 -388.478 -988.23307)"/><path d="m1261.57 2509.76 161.97-187.82" fill="none" stroke="#bcd1dd" stroke-dasharray="10.63 10.63 0 0" stroke-width="3.54" transform="matrix(.510204 0 0 .460426 -388.478 -988.23307)"/><path d="m1261.57 2509.76 23.93-158.96" fill="none" stroke="#bcd1dd" stroke-dasharray="10.63 10.63 0 0" stroke-width="3.54" transform="matrix(.510204 0 0 .460426 -388.478 -988.23307)"/><g fill="#52a7d8"><path d="m211.898 331.868h-130v-60.937c0-35.875 29.125-69.063 65-69.063 35.874 0 65 33.188 65 69.063z" transform="matrix(.16494424794 0 0 .10992631322 228.5788403278 195.0395148)"/><circle cx="151.275" cy="155.86" r="44.14" transform="matrix(.16494424794 0 0 .1488513297 227.8569460123 188.6512925472)"/><path d="m211.898 331.868h-130v-60.937c0-35.875 29.125-69.063 65-69.063 35.874 0 65 33.188 65 69.063z" transform="matrix(.16494424794 0 0 .10992631322 281.0568403278 160.5555148)"/><circle cx="151.275" cy="155.86" r="44.14" transform="matrix(.16494424794 0 0 .1488513297 280.3349460123 154.1672925472)"/><path d="m211.898 331.868h-130v-60.937c0-35.875 29.125-69.063 65-69.063 35.874 0 65 33.188 65 69.063z" transform="matrix(.16494424794 0 0 .10992631322 338.7788403278 111.8375148)"/><circle cx="151.275" cy="155.86" r="44.14" transform="matrix(.16494424794 0 0 .1488513297 338.0569460123 105.4492925472)"/><path d="m211.898 331.868h-130v-60.937c0-35.875 29.125-69.063 65-69.063 35.874 0 65 33.188 65 69.063z" transform="matrix(.16494424794 0 0 .10992631322 220.2298403278 31.4455148)"/><circle cx="151.275" cy="155.86" r="44.14" transform="matrix(.16494424794 0 0 .1488513297 219.5079460123 25.0572925472)"/><path d="m211.898 331.868h-130v-60.937c0-35.875 29.125-69.063 65-69.063 35.874 0 65 33.188 65 69.063z" transform="matrix(.16494424794 0 0 .10992631322 302.4868403278 43.4572948)"/><circle cx="151.275" cy="155.86" r="44.14" transform="matrix(.16494424794 0 0 .1488513297 301.7649460123 37.0690725472)"/><path d="m211.898 331.868h-130v-60.937c0-35.875 29.125-69.063 65-69.063 35.874 0 65 33.188 65 69.063z" transform="matrix(.16494424794 0 0 .10992631322 332.8588403278 186.4245148)"/><circle cx="151.275" cy="155.86" r="44.14" transform="matrix(.16494424794 0 0 .1488513297 332.1369460123 180.0362925472)"/></g><path d="m190.836 723.319 54.907 31.701v63.402l-54.907 31.701-54.908-31.701v-63.402z" fill="#c1c1c1" transform="matrix(.14939523065 0 0 .13481957962 234.16973439839 124.98785045605)"/><path d="m190.836 786.721 54.907-31.673v63.374l-54.907 31.701" fill="#161616" transform="matrix(.14939523065 0 0 .13481957962 234.16973439839 124.98785045605)"/><path d="m190.836 786.721 54.907-31.673v63.374l-54.907 31.701" fill="#757575" transform="matrix(-.14939523065 0 0 .13481957962 291.18961175959 124.98785045605)"/><path d="m190.836 723.319 54.907 31.701v63.402l-54.907 31.701-54.908-31.701v-63.402z" fill="#36adf2" fill-opacity=".6" transform="matrix(.1493954443 0 0 .13481951068 234.1697272424 124.9880040816)"/><path d="m190.836 723.319 54.907 31.701v63.402l-54.907 31.701-54.908-31.701v-63.402z" fill="#c1c1c1" transform="matrix(.14939523065 0 0 .13481957962 286.64773439839 90.50385045605)"/><path d="m190.836 786.721 54.907-31.673v63.374l-54.907 31.701" fill="#161616" transform="matrix(.14939523065 0 0 .13481957962 286.64773439839 90.50385045605)"/><path d="m190.836 786.721 54.907-31.673v63.374l-54.907 31.701" fill="#757575" transform="matrix(-.14939523065 0 0 .13481957962 343.66761175959 90.50385045605)"/><path d="m190.836 723.319 54.907 31.701v63.402l-54.907 31.701-54.908-31.701v-63.402z" fill="#36adf2" fill-opacity=".6" transform="matrix(.1493954443 0 0 .13481951068 286.6477272424 90.5040040816)"/><path d="m190.836 723.319 54.907 31.701v63.402l-54.907 31.701-54.908-31.701v-63.402z" fill="#c1c1c1" transform="matrix(.14939523065 0 0 .13481957962 344.36973439839 41.78625045605)"/><path d="m190.836 786.721 54.907-31.673v63.374l-54.907 31.701" fill="#161616" transform="matrix(.14939523065 0 0 .13481957962 344.36973439839 41.78625045605)"/><path d="m190.836 786.721 54.907-31.673v63.374l-54.907 31.701" fill="#757575" transform="matrix(-.14939523065 0 0 .13481957962 401.38961175959 41.78625045605)"/><path d="m190.836 723.319 54.907 31.701v63.402l-54.907 31.701-54.908-31.701v-63.402z" fill="#36adf2" fill-opacity=".6" transform="matrix(.1493954443 0 0 .13481951068 344.3697272424 41.7864040816)"/><path d="m190.836 723.319 54.907 31.701v63.402l-54.907 31.701-54.908-31.701v-63.402z" fill="#c1c1c1" transform="matrix(.22235514085 0 0 .20066089748 211.86307687956 9.46124763453)"/><path d="m190.836 786.721 54.907-31.673v63.374l-54.907 31.701" fill="#161616" transform="matrix(.22235514085 0 0 .20066089748 211.86307687956 9.46124763453)"/><path d="m190.836 786.721 54.907-31.673v63.374l-54.907 31.701" fill="#757575" transform="matrix(-.22235514085 0 0 .20066089748 296.72966068453 9.46124763453)"/><path d="m190.836 723.319 54.907 31.701v63.402l-54.907 31.701-54.908-31.701v-63.402z" fill="#36adf2" fill-opacity=".6" transform="matrix(.22235545885 0 0 .20066079487 211.8630662288 9.4614762856)"/><path d="m190.836 723.319 54.907 31.701v63.402l-54.907 31.701-54.908-31.701v-63.402z" fill="#c1c1c1" transform="matrix(.22235514085 0 0 .20066089748 224.95707687956 -65.53483236547)"/><path d="m190.836 786.721 54.907-31.673v63.374l-54.907 31.701" fill="#161616" transform="matrix(.22235514085 0 0 .20066089748 224.95707687956 -65.53483236547)"/><path d="m190.836 786.721 54.907-31.673v63.374l-54.907 31.701" fill="#757575" transform="matrix(-.22235514085 0 0 .20066089748 309.82366068453 -65.53483236547)"/><path d="m190.836 723.319 54.907 31.701v63.402l-54.907 31.701-54.908-31.701v-63.402z" fill="#36adf2" fill-opacity=".6" transform="matrix(.22235545885 0 0 .20066079487 224.9570662288 -65.5346037144)"/><path d="m190.836 723.319 54.907 31.701v63.402l-54.907 31.701-54.908-31.701v-63.402z" fill="#c1c1c1" transform="matrix(.22235514085 0 0 .20066089748 295.38207687956 -78.04065236547)"/><path d="m190.836 786.721 54.907-31.673v63.374l-54.907 31.701" fill="#161616" transform="matrix(.22235514085 0 0 .20066089748 295.38207687956 -78.04065236547)"/><path d="m190.836 786.721 54.907-31.673v63.374l-54.907 31.701" fill="#757575" transform="matrix(-.22235514085 0 0 .20066089748 380.24866068453 -78.04065236547)"/><path d="m190.836 723.319 54.907 31.701v63.402l-54.907 31.701-54.908-31.701v-63.402z" fill="#36adf2" fill-opacity=".6" transform="matrix(.22235545885 0 0 .20066079487 295.3820662288 -78.0404237144)"/><path d="m1247.56 2481.41 115.78 225.05" fill="none" stroke="#e6e6e6" stroke-dasharray="10.63 10.63 0 0" stroke-width="3.54" transform="matrix(.510204 0 0 .460426 -514.86 -1024.28835)"/><path d="m1247.56 2481.41v225.53" fill="none" stroke="#e6e6e6" stroke-dasharray="10.63 10.63 0 0" stroke-width="3.54" transform="matrix(.510204 0 0 .460426 -514.86 -1024.28835)"/><path d="m1247.56 2481.41-62.55 225.53" fill="none" stroke="#e6e6e6" stroke-dasharray="10.63 10.63 0 0" stroke-width="3.54" transform="matrix(.510204 0 0 .460426 -514.86 -1024.28835)"/><path d="m1247.56 2481.41-119.76 225.53" fill="none" stroke="#e6e6e6" stroke-dasharray="10.63 10.63 0 0" stroke-width="3.54" transform="matrix(.510204 0 0 .460426 -514.86 -1024.28835)"/><path d="m1247.56 2483.88 59.16 221.57" fill="none" stroke="#e6e6e6" stroke-dasharray="10.63 10.63 0 0" stroke-width="3.54" transform="matrix(.510204 0 0 .460426 -514.86 -1024.28835)"/><path d="m211.898 331.868h-130v-60.937c0-35.875 29.125-69.063 65-69.063 35.874 0 65 33.188 65 69.063z" fill="#c8c8c8" transform="matrix(.4532826872 0 0 .3020884144 55.062703464 23.230095)"/><circle cx="151.275" cy="155.86" fill="#c8c8c8" r="44.14" transform="matrix(.4532826872 0 0 .4090582214 53.078868324 5.67462648)"/><path d="m211.898 331.868h-130v-60.937c0-35.875 29.125-69.063 65-69.063 35.874 0 65 33.188 65 69.063z" fill="#c8c8c8" transform="matrix(.16494424794 0 0 .10992631322 38.2033103278 193.4334448)"/><circle cx="151.275" cy="155.86" fill="#c8c8c8" r="44.14" transform="matrix(.16494424794 0 0 .1488513297 37.4814160123 187.0452225472)"/><path d="m211.898 331.868h-130v-60.937c0-35.875 29.125-69.063 65-69.063 35.874 0 65 33.188 65 69.063z" fill="#c8c8c8" transform="matrix(.16494424794 0 0 .10992631322 67.8111403278 193.4334448)"/><circle cx="151.275" cy="155.86" fill="#c8c8c8" r="44.14" transform="matrix(.16494424794 0 0 .1488513297 67.0892460123 187.0452225472)"/><path d="m211.898 331.868h-130v-60.937c0-35.875 29.125-69.063 65-69.063 35.874 0 65 33.188 65 69.063z" fill="#c8c8c8" transform="matrix(.16494424794 0 0 .10992631322 156.6348403278 193.4334448)"/><circle cx="151.275" cy="155.86" fill="#c8c8c8" r="44.14" transform="matrix(.16494424794 0 0 .1488513297 155.9129460123 187.0452225472)"/><path d="m211.898 331.868h-130v-60.937c0-35.875 29.125-69.063 65-69.063 35.874 0 65 33.188 65 69.063z" fill="#c8c8c8" transform="matrix(.16494424794 0 0 .10992631322 97.4190403278 193.4334448)"/><circle cx="151.275" cy="155.86" fill="#c8c8c8" r="44.14" transform="matrix(.16494424794 0 0 .1488513297 96.6971460123 187.0452225472)"/><path d="m211.898 331.868h-130v-60.937c0-35.875 29.125-69.063 65-69.063 35.874 0 65 33.188 65 69.063z" fill="#c8c8c8" transform="matrix(.16494424794 0 0 .10992631322 127.0269403278 193.4334448)"/><circle cx="151.275" cy="155.86" fill="#c8c8c8" r="44.14" transform="matrix(.16494424794 0 0 .1488513297 126.3050460123 187.0452225472)"/><path d="m190.836 723.319 54.907 31.701v63.402l-54.907 31.701-54.908-31.701v-63.402z" fill="#c1c1c1" transform="matrix(.64546296255 0 0 .58248673817 -1.52827084848 -317.46899928977)"/><path d="m190.836 786.721 54.907-31.673v63.374l-54.907 31.701" fill="#161616" transform="matrix(.64546296255 0 0 .58248673817 -1.52827084848 -317.46899928977)"/><path d="m190.836 786.721 54.907-31.673v63.374l-54.907 31.701" fill="#757575" transform="matrix(-.64546296255 0 0 .58248673817 244.82644078103 -317.46899928977)"/><path d="m190.836 723.319 54.907 31.701v63.402l-54.907 31.701-54.908-31.701v-63.402z" fill="#fff" fill-opacity=".6" transform="matrix(.64546388564 0 0 .58248644028 -1.528301766 -317.468335552)"/><path d="m2230.7 4785.48v-28.91h96.21v-26.84l55.95 41.3-55.95 41.29v-26.84z" fill="#52a7d8" transform="matrix(.225911 0 0 .276193 -317.214 -1177.08)"/></g></g></svg>