<svg clip-rule="evenodd" fill-rule="evenodd" stroke-linecap="round" stroke-linejoin="round" stroke-miterlimit="1.5" viewBox="0 0 640 440" xmlns="http://www.w3.org/2000/svg"><g transform="matrix(1.9431 0 0 2.18783 -100.481 -87.7054)"><path d="m51.712 40.088h329.371v201.113h-329.371z" fill="none"/><g fill="#1b77af"><path d="m211.898 331.868h-130v-60.937c0-35.875 29.125-69.063 65-69.063 35.874 0 65 33.188 65 69.063z" transform="matrix(.32114 0 0 .210632 49.246 95.88127)"/><circle cx="151.275" cy="155.86" r="44.14" transform="matrix(.32114 0 0 .285217 47.8405 83.64067)"/><path d="m211.898 331.868h-130v-60.937c0-35.875 29.125-69.063 65-69.063 35.874 0 65 33.188 65 69.063z" transform="matrix(.32114 0 0 .210632 101.884 162.5163)"/><circle cx="151.275" cy="155.86" r="44.14" transform="matrix(.32114 0 0 .285217 100.4785 150.2757)"/><path d="m211.898 331.868h-130v-60.937c0-35.875 29.125-69.063 65-69.063 35.874 0 65 33.188 65 69.063z" transform="matrix(.32114 0 0 .210632 236.5608 162.5163)"/><circle cx="151.275" cy="155.86" r="44.14" transform="matrix(.32114 0 0 .285217 235.1553 150.2757)"/><path d="m211.898 331.868h-130v-60.937c0-35.875 29.125-69.063 65-69.063 35.874 0 65 33.188 65 69.063z" transform="matrix(.32114 0 0 .210632 289.1988 95.88127)"/><circle cx="151.275" cy="155.86" r="44.14" transform="matrix(.32114 0 0 .285217 287.7933 83.64067)"/><path d="m211.898 331.868h-130v-60.937c0-35.875 29.125-69.063 65-69.063 35.874 0 65 33.188 65 69.063z" transform="matrix(.32114 0 0 .210632 236.5608 29.2462)"/><circle cx="151.275" cy="155.86" r="44.14" transform="matrix(.32114 0 0 .285217 235.1553 17.0056)"/><path d="m211.898 331.868h-130v-60.937c0-35.875 29.125-69.063 65-69.063 35.874 0 65 33.188 65 69.063z" transform="matrix(.32114 0 0 .210632 101.884 29.2462)"/><circle cx="151.275" cy="155.86" r="44.14" transform="matrix(.32114 0 0 .285217 100.4785 17.0056)"/></g><g fill="none" stroke="#1b77af"><circle cx="311.624" cy="149.754" r="84.882" stroke-width="4" transform="matrix(.514642 0 0 .457074 56.02247 72.1953)"/><path d="m311.624 64.872v169.765" stroke-width="4" transform="matrix(.514642 0 0 .457074 56.02247 72.1953)"/><path d="m311.624 64.872v169.765" stroke-width="4" transform="matrix(0 -.457074 .514642 0 139.32757 283.0794)"/><path d="m311.624 64.872c61.665 56.588 60.355 113.177 0 169.765" stroke-width="4" transform="matrix(.514642 0 0 .457074 56.02247 72.1953)"/><path d="m311.624 64.872c61.665 56.588 60.355 113.177 0 169.765" stroke-width="4" transform="matrix(-.514642 0 0 .457074 376.77257 72.1953)"/><path d="m256.938 84.855c18.23 17.148 36.458 25.55 54.686 25.445 18.199-.106 36.397-8.691 54.596-25.521" stroke-width="4.93" transform="matrix(-.514642 0 0 -.25803 376.74857 191.9694)"/><path d="m256.938 84.855c18.23 17.148 36.458 25.55 54.686 25.445 18.199-.106 36.397-8.691 54.596-25.521" stroke-width="4.93" transform="matrix(.514642 0 0 .25803 56.04547 89.3189)"/></g></g></svg>